<?xml version="1.0" encoding="UTF-8"?>
<svg preserveAspectRatio="none" version="1.1" viewBox="0 0 1920 560" xmlns="http://www.w3.org/2000/svg">
<g fill="none" mask="url(#a)">
<path d="m0 426.67 10-43.33 10 43.67 10-45.89 10-12.91 10 48.2 10-13.88 10-41.26 10-48.1 10 8.99 10 9.2 10-24.29 10 48.04 10-1.9 10 31.38 10-42.33 10-46.16 10 8.3 10 17.8 10 42.92 10 15.64 10-24.43 10 56.53 10-4.32 10 2.81 10-6.64 10-35.92 10 67.24 10 36.33 10 59.78 10-21.18 10 39.36 10-39.84 10-57.21 10 17.9 10 65.12 10-58.82 10-43.99 10-17.44 10-12.12 10-1.52 10 5.68 10-40.26 10 3.35 10 52.37 10 17.38 10-8.47 10-51.61 10-36.87 10-32.21 10 63.24 10 67.29 10-47.37 10-46.56 10-31.99 10 53.99 10 49.27 10-48.8 10 69.72 10-26.47 10 40.15 10-55.38 10 3.52 10 58.95 10-29.65 10-4.48 10-69.71 10 21.39 10-49.6 10-34.47 10-1.07 10 18.86 10 47.97 10 29.58 10 16.27 10 25.91 10 31.15 10 62.02 10-21.91 10 40.04 10-33.56 10-13.07 10-62.08 10 15.69 10 41.41 10 54.68 10 13.29 10-26.7 10-49.29 10 47.64 10-23.6 10 31.73 10-52.58 10 23.1 10 10.96 10 25.53 10-1.86 10-23.97 10-28.01 10-27.88 10-16.26 10 66.83 10 32.54 10-8.34 10-28.38 10 21.34 10-4.89 10-31.71 10-51.09 10 26.84 10-18 10 68.82 10 3.24 10-15.65 10-39.43 10-58.82 10-58.77 10 69 10-0.61 10-56.58 10 47.81 10 9.05 10-7.81 10-61.49 10 2.82 10-17.69 10-40.42 10-62.99 10 15.48 10-44.52 10-28.04 10-46.71 10 33.61 10 13.7 10 0.37 10 38.38 10 33.98 10 28.55 10 19.26 10-17.04 10-63.83 10-38.45 10-54.62 10-39.04 10 9.36 10-40.73 10 15.42 10-10.25 10-29.05 10 9.53 10 28.57 10-23.91 10 64.69 10-52.14 10 40.87 10-22.72 10 24.65 10 60.09 10-28.42 10-9.24 10-69.53 10-37.01 10 26.71 10 12.72 10 0.38 10 53.19 10 60.18 10 28.88 10 4.58 10 14.69 10-16.13 10 43.35 10-47.23 10 10.57 10-47.04 10-62.03 10 6.33 10-61.12 10-8.79 10 8.16 10 20.54 10 62.84 10-69.15 10 61.31 10-49.56 10-46.27 10 54.54 10-54.07 10-10.89 10 26.83 10 28.89 10 48.72 10-10.67" stroke="rgba(15, 157, 88, 1)" stroke-width="2"/>
<path d="m0 426.67 10-43.33 10 43.67 10-45.89 10-12.91 10 48.2 10-13.88 10-41.26 10-48.1 10 8.99 10 9.2 10-24.29 10 48.04 10-1.9 10 31.38 10-42.33 10-46.16 10 8.3 10 17.8 10 42.92 10 15.64 10-24.43 10 56.53 10-4.32 10 2.81 10-6.64 10-35.92 10 67.24 10 36.33 10 59.78 10-21.18 10 39.36 10-39.84 10-57.21 10 17.9 10 65.12 10-58.82 10-43.99 10-17.44 10-12.12 10-1.52 10 5.68 10-40.26 10 3.35 10 52.37 10 17.38 10-8.47 10-51.61 10-36.87 10-32.21 10 63.24 10 67.29 10-47.37 10-46.56 10-31.99 10 53.99 10 49.27 10-48.8 10 69.72 10-26.47 10 40.15 10-55.38 10 3.52 10 58.95 10-29.65 10-4.48 10-69.71 10 21.39 10-49.6 10-34.47 10-1.07 10 18.86 10 47.97 10 29.58 10 16.27 10 25.91 10 31.15 10 62.02 10-21.91 10 40.04 10-33.56 10-13.07 10-62.08 10 15.69 10 41.41 10 54.68 10 13.29 10-26.7 10-49.29 10 47.64 10-23.6 10 31.73 10-52.58 10 23.1 10 10.96 10 25.53 10-1.86 10-23.97 10-28.01 10-27.88 10-16.26 10 66.83 10 32.54 10-8.34 10-28.38 10 21.34 10-4.89 10-31.71 10-51.09 10 26.84 10-18 10 68.82 10 3.24 10-15.65 10-39.43 10-58.82 10-58.77 10 69 10-0.61 10-56.58 10 47.81 10 9.05 10-7.81 10-61.49 10 2.82 10-17.69 10-40.42 10-62.99 10 15.48 10-44.52 10-28.04 10-46.71 10 33.61 10 13.7 10 0.37 10 38.38 10 33.98 10 28.55 10 19.26 10-17.04 10-63.83 10-38.45 10-54.62 10-39.04 10 9.36 10-40.73 10 15.42 10-10.25 10-29.05 10 9.53 10 28.57 10-23.91 10 64.69 10-52.14 10 40.87 10-22.72 10 24.65 10 60.09 10-28.42 10-9.24 10-69.53 10-37.01 10 26.71 10 12.72 10 0.38 10 53.19 10 60.18 10 28.88 10 4.58 10 14.69 10-16.13 10 43.35 10-47.23 10 10.57 10-47.04 10-62.03 10 6.33 10-61.12 10-8.79 10 8.16 10 20.54 10 62.84 10-69.15 10 61.31 10-49.56 10-46.27 10 54.54 10-54.07 10-10.89 10 26.83 10 28.89 10 48.72 10-10.67v453.87h-1920z" fill="url(#b)"/>
</g>
<defs>
<mask id="a">
<rect width="1920" height="560" fill="#fff"/>
</mask>
<linearGradient id="b" x1="50%" x2="50%" y2="100%">
<stop stop-color="rgba(15, 157, 88, 1)" stop-opacity=".65" offset="0"/>
<stop stop-color="#55efa4" stop-opacity="0" offset=".8"/>
</linearGradient>
</defs>
</svg>
